<svg xmlns="http://www.w3.org/2000/svg" xmlns:xlink="http://www.w3.org/1999/xlink" viewBox="0 0 12.85 12.85"><defs><style>.cls-1{fill:none;}.cls-2{clip-path:url(#clip-path);}.cls-3{fill:#fff;}</style><clipPath id="clip-path"><rect class="cls-1" width="12.88" height="12.89"/></clipPath></defs><title>Fichier 1</title><g id="Calque_2" data-name="Calque 2"><g id="_24_Grid_Col" data-name="24 Grid Col"><g class="cls-2"><path class="cls-3" d="M4.91,7.94a3.85,3.85,0,1,1,5.45,0,3.86,3.86,0,0,1-5.45,0m6.41,1A5.21,5.21,0,1,0,4,1.52a5.11,5.11,0,0,0-.78,6.29.22.22,0,0,1,0,.26L.48,10.74a1.22,1.22,0,0,0-.19,1.74l.08.08a1.22,1.22,0,0,0,1.74-.19L4.77,9.72a.22.22,0,0,1,.27,0,5.11,5.11,0,0,0,6.29-.78"/></g></g></g></svg>